<svg id="visual" viewBox="0 0 900 914" width="900" height="914" xmlns="http://www.w3.org/2000/svg" xmlns:xlink="http://www.w3.org/1999/xlink" version="1.1"><rect x="0" y="0" width="900" height="914" fill="#507046"></rect><g fill="none" stroke="#ffffff" stroke-width="2"><circle r="87" cx="278" cy="126"></circle><circle r="4" cx="480" cy="649"></circle><circle r="12" cx="149" cy="262"></circle><circle r="31" cx="867" cy="696"></circle><circle r="15" cx="767" cy="140"></circle><circle r="18" cx="211" cy="690"></circle><circle r="46" cx="388" cy="848"></circle><circle r="79" cx="631" cy="841"></circle><circle r="71" cx="736" cy="469"></circle><circle r="47" cx="279" cy="512"></circle><circle r="63" cx="51" cy="532"></circle><circle r="32" cx="565" cy="356"></circle><circle r="10" cx="351" cy="288"></circle><circle r="43" cx="895" cy="355"></circle><circle r="49" cx="38" cy="810"></circle><circle r="9" cx="609" cy="16"></circle><circle r="8" cx="98" cy="62"></circle><circle r="47" cx="456" cy="109"></circle><circle r="15" cx="817" cy="907"></circle><circle r="79" cx="2" cy="362"></circle><circle r="84" cx="691" cy="661"></circle><circle r="60" cx="207" cy="886"></circle></g></svg>