<svg id="visual" viewBox="0 0 722 914" width="722" height="914" xmlns="http://www.w3.org/2000/svg" xmlns:xlink="http://www.w3.org/1999/xlink" version="1.1"><rect x="0" y="0" width="722" height="914" fill="#507046"></rect><g fill="none" stroke="#ffffff" stroke-width="2"><circle r="40" cx="168" cy="89"></circle><circle r="1" cx="541" cy="695"></circle><circle r="18" cx="453" cy="126"></circle><circle r="7" cx="336" cy="14"></circle><circle r="18" cx="415" cy="830"></circle><circle r="8" cx="152" cy="503"></circle><circle r="32" cx="588" cy="85"></circle><circle r="10" cx="498" cy="794"></circle><circle r="20" cx="217" cy="6"></circle><circle r="32" cx="228" cy="767"></circle><circle r="7" cx="483" cy="291"></circle><circle r="23" cx="5" cy="373"></circle><circle r="22" cx="597" cy="282"></circle><circle r="11" cx="651" cy="671"></circle><circle r="11" cx="104" cy="394"></circle><circle r="30" cx="713" cy="306"></circle><circle r="13" cx="23" cy="777"></circle><circle r="15" cx="656" cy="863"></circle><circle r="5" cx="7" cy="605"></circle><circle r="15" cx="598" cy="409"></circle><circle r="24" cx="139" cy="904"></circle><circle r="34" cx="601" cy="514"></circle><circle r="37" cx="70" cy="231"></circle><circle r="27" cx="35" cy="894"></circle><circle r="2" cx="268" cy="239"></circle><circle r="14" cx="665" cy="171"></circle><circle r="37" cx="374" cy="590"></circle><circle r="10" cx="178" cy="319"></circle><circle r="14" cx="97" cy="617"></circle><circle r="22" cx="33" cy="517"></circle><circle r="27" cx="84" cy="54"></circle><circle r="10" cx="376" cy="394"></circle><circle r="1" cx="346" cy="278"></circle><circle r="30" cx="219" cy="608"></circle><circle r="10" cx="425" cy="27"></circle><circle r="30" cx="415" cy="687"></circle></g></svg>